<svg xmlns="http://www.w3.org/2000/svg" style="display:none">
  <symbol id="icon-deposit" viewBox="0 0 24 24" fill="none" stroke="currentColor" stroke-width="2" stroke-linecap="round" stroke-linejoin="round">
    <rect x="2" y="5" width="20" height="14" rx="2"/>
    <line x1="12" y1="9" x2="12" y2="16"/>
    <polyline points="9,13 12,16 15,13"/>
    <circle cx="18" cy="10" r="1"/>
  </symbol>
  <symbol id="icon-send" viewBox="0 0 24 24" fill="none" stroke="currentColor" stroke-width="2" stroke-linecap="round" stroke-linejoin="round">
    <line x1="12" y1="5" x2="12" y2="19"/>
    <polyline points="19,12 12,5 5,12"/>
  </symbol>
  <symbol id="icon-receive" viewBox="0 0 24 24" fill="none" stroke="currentColor" stroke-width="2" stroke-linecap="round" stroke-linejoin="round">
    <line x1="12" y1="5" x2="12" y2="19"/>
    <polyline points="5,12 12,19 19,12"/>
  </symbol>
  <symbol id="icon-trade" viewBox="0 0 24 24" fill="none" stroke="currentColor" stroke-width="2" stroke-linecap="round" stroke-linejoin="round">
    <line x1="21" y1="4" x2="14" y2="11"/>
    <line x1="21" y1="10" x2="21" y2="4"/>
    <line x1="15" y1="4" x2="21" y2="4"/>
    <polyline points="3,16 7,12 11,16"/>
    <polyline points="7,12 7,20"/>
  </symbol>
  <symbol id="icon-withdraw" viewBox="0 0 24 24" fill="none" stroke="currentColor" stroke-width="2" stroke-linecap="round" stroke-linejoin="round">
    <rect x="2" y="5" width="20" height="14" rx="2"/>
    <line x1="12" y1="9" x2="12" y2="16"/>
    <polyline points="9,12 12,9 15,12"/>
    <circle cx="6" cy="10" r="1"/>
  </symbol>
  <symbol id="icon-ledger" viewBox="0 0 24 24" fill="none" stroke="currentColor" stroke-width="2" stroke-linecap="round" stroke-linejoin="round">
    <polyline points="22,12 18,12 15,21 9,3 6,12 2,12"/>
  </symbol>
  <symbol id="icon-security" viewBox="0 0 24 24" fill="none" stroke="currentColor" stroke-width="2" stroke-linecap="round" stroke-linejoin="round">
    <path d="M12 22s8-4 8-10V5l-8-3-8 3v7c0 6 8 10 8 10z"/>
    <circle cx="12" cy="12" r="2.5"/>
  </symbol>
  <symbol id="icon-empty" viewBox="0 0 24 24" fill="none" stroke="currentColor" stroke-width="2" stroke-linecap="round" stroke-linejoin="round">
    <polyline points="22,12 18,12 15,21 9,3 6,12 2,12"/>
  </symbol>
  <symbol id="icon-blocks" viewBox="0 0 24 24" fill="none" stroke="currentColor" stroke-width="2" stroke-linecap="round" stroke-linejoin="round">
    <rect x="3" y="3" width="7" height="7"/>
    <rect x="14" y="3" width="7" height="7"/>
    <rect x="3" y="14" width="7" height="7"/>
    <rect x="14" y="14" width="7" height="7"/>
  </symbol>
  <symbol id="icon-warning" viewBox="0 0 24 24" fill="none" stroke="currentColor" stroke-width="2" stroke-linecap="round" stroke-linejoin="round">
    <path d="M10.29 3.86L1.82 18a2 2 0 0 0 1.71 3h16.94a2 2 0 0 0 1.71-3L13.71 3.86a2 2 0 0 0-3.42 0z"/>
    <line x1="12" y1="9" x2="12" y2="13"/>
    <line x1="12" y1="17" x2="12.01" y2="17"/>
  </symbol>
  <symbol id="icon-orders" viewBox="0 0 24 24" fill="none" stroke="currentColor" stroke-width="2" stroke-linecap="round" stroke-linejoin="round">
    <path d="M14 2H6a2 2 0 0 0-2 2v16a2 2 0 0 0 2 2h12a2 2 0 0 0 2-2V8z"/>
    <polyline points="14,2 14,8 20,8"/>
    <line x1="16" y1="13" x2="8" y2="13"/>
    <line x1="16" y1="17" x2="8" y2="17"/>
    <polyline points="10,9 9,9 8,9"/>
  </symbol>
  <symbol id="icon-send-feature" viewBox="0 0 24 24" fill="none" stroke="currentColor" stroke-width="2" stroke-linecap="round" stroke-linejoin="round">
    <path d="M17 1l4 4-4 4"/>
    <path d="M3 11V9a4 4 0 0 1 4-4h14"/>
    <path d="M7 23l-4-4 4-4"/>
    <path d="M21 13v2a4 4 0 0 1-4 4H3"/>
  </symbol>
  <symbol id="icon-mpesa" viewBox="0 0 24 24" fill="none" stroke="currentColor" stroke-width="2" stroke-linecap="round" stroke-linejoin="round">
    <rect x="5" y="2" width="14" height="20" rx="2"/>
    <line x1="12" y1="18" x2="12.01" y2="18"/>
    <circle cx="12" cy="14" r="1.5"/>
  </symbol>
  <symbol id="icon-trade-feature" viewBox="0 0 24 24" fill="none" stroke="currentColor" stroke-width="2" stroke-linecap="round" stroke-linejoin="round">
    <line x1="4" y1="20" x2="4" y2="14"/>
    <line x1="8" y1="20" x2="8" y2="10"/>
    <line x1="12" y1="20" x2="12" y2="6"/>
    <line x1="16" y1="20" x2="16" y2="8"/>
    <line x1="20" y1="20" x2="20" y2="12"/>
  </symbol>
  <symbol id="icon-ledger-feature" viewBox="0 0 24 24" fill="none" stroke="currentColor" stroke-width="2" stroke-linecap="round" stroke-linejoin="round">
    <rect x="3" y="3" width="18" height="18" rx="2"/>
    <line x1="3" y1="9" x2="21" y2="9"/>
    <line x1="9" y1="3" x2="9" y2="21"/>
  </symbol>
  <symbol id="icon-agent" viewBox="0 0 24 24" fill="none" stroke="currentColor" stroke-width="2" stroke-linecap="round" stroke-linejoin="round">
    <path d="M17 21v-2a4 4 0 0 0-4-4H5a4 4 0 0 0-4 4v2"/>
    <circle cx="9" cy="7" r="4"/>
    <path d="M23 21v-2a4 4 0 0 0-3-3.87"/>
    <path d="M16 3.13a4 4 0 0 1 0 7.75"/>
  </symbol>
  <symbol id="icon-ussd" viewBox="0 0 24 24" fill="none" stroke="currentColor" stroke-width="2" stroke-linecap="round" stroke-linejoin="round">
    <rect x="5" y="2" width="14" height="20" rx="2"/>
    <line x1="12" y1="18" x2="12.01" y2="18"/>
    <circle cx="12" cy="12" r="2"/>
    <circle cx="12" cy="6" r="1"/>
  </symbol>
  <symbol id="icon-cross" viewBox="0 0 24 24" fill="none" stroke="currentColor" stroke-width="2" stroke-linecap="round" stroke-linejoin="round">
    <line x1="18" y1="6" x2="6" y2="18"/>
    <line x1="6" y1="6" x2="18" y2="18"/>
  </symbol>
  <symbol id="icon-chevron-up" viewBox="0 0 24 24" fill="none" stroke="currentColor" stroke-width="2" stroke-linecap="round" stroke-linejoin="round">
    <polyline points="18,15 12,9 6,15"/>
  </symbol>
  <symbol id="icon-chevron-down" viewBox="0 0 24 24" fill="none" stroke="currentColor" stroke-width="2" stroke-linecap="round" stroke-linejoin="round">
    <polyline points="6,9 12,15 18,9"/>
  </symbol>
</svg>
